<svg viewBox="0 0 550 550" xmlns="http://www.w3.org/2000/svg"><path d="m273.89 512.39c-77.128-77.128-178.417-191.444-178.417-292.155 0-99.411 80.643-181.625 180.054-181.625 99.412 0 180 80.589 180 180 0 99.412-104.226 217.245-180.761 293.78z" fill="#fff"/><path d="m273.89 512.39c-77.128-77.128-178.417-191.444-178.417-292.155 0-99.411 80.643-181.625 180.054-181.625 99.412 0 180 80.589 180 180 0 99.412-104.226 217.245-180.761 293.78z" fill="none" stroke="#ac0270" stroke-width="10"/><path d="m275.527 31.61c103.278 0 187 83.723 187 187 0 47.416-22.345 100.844-62.924 159.453-31.298 45.204-71.099 90.488-119.887 139.276l-2.05 2.05-2.9.001h-3.775l-2.051-2.051c-49.29-49.29-88.245-93.597-118.948-138.215-39.741-57.751-61.519-110.838-61.519-158.889 0-103.558 84.054-188.625 187.054-188.625zm0 7c-99.411 0-180.054 82.214-180.054 181.625 0 100.711 101.289 215.027 178.417 292.155h.876c76.535-76.535 180.761-194.368 180.761-293.78 0-99.411-80.588-180-180-180z" fill="#fff"/><path d="m196.051 93.973 4.826-3.07q1.08-.687 1.977-.878.898-.192 1.616-.032.718.16 1.271.601.554.442.919 1.016.311.489.421 1.036.111.546.013 1.082-.097.536-.383 1.037-.285.502-.765.902l.055.012q.107-.092.621-.253.514-.16 1.204-.137.691.023 1.441.364.75.34 1.329 1.252.526.826.62 1.644.093.818-.182 1.597-.274.779-.911 1.492-.637.713-1.582 1.314l-4.826 3.07zm8.304 2.398q1.536-.977 1.86-2.143.325-1.167-.384-2.281-.418-.658-.956-.944-.537-.286-1.136-.296-.599-.01-1.223.22-.624.231-1.231.617l-4.084 2.598 3.07 4.826zm3.778 5.94q1.62-1.03 2.105-2.299.485-1.268-.384-2.635-.494-.776-1.131-1.07-.638-.294-1.318-.264-.68.029-1.366.311-.686.282-1.276.658l-4.084 2.598 3.37 5.299z" fill="#ac0270"/><path d="m214.597 83.064 5.414-2.492q.854-.393 1.678-.563.824-.17 1.567-.039.743.132 1.354.621.611.49 1.045 1.435.602 1.308.281 2.546-.322 1.238-1.53 2.058l.017.036q.94-.301 1.625-.176.685.125 1.182.535.497.41.862 1.012.365.603.658 1.239.176.381.343.745.167.363.35.664.183.301.39.536.207.235.436.35l-.89.41q-.464-.337-.771-.933-.308-.597-.609-1.251-.301-.654-.652-1.274-.351-.619-.876-.994-.525-.375-1.294-.396-.769-.02-1.913.507l-4.615 2.124 2.718 5.904-.8.368zm8.349 3.885q.708-.326 1.238-.778.529-.453.798-1.017.268-.564.263-1.244-.004-.681-.364-1.462-.334-.727-.845-1.119-.511-.392-1.116-.51-.605-.118-1.271.012-.666.131-1.32.432l-4.615 2.124 2.617 5.686z" fill="#ac0270"/><path d="m234.686 74.725 9.228-2.649.209.73-8.381 2.406 1.578 5.498 7.882-2.262.21.73-7.882 2.263 1.733 6.036 8.478-2.434.209.731-9.323 2.676z" fill="#ac0270"/><path d="m258.639 69.488.952-.126 7.465 13.417-.932.123-2.385-4.304-6.781.897-1.204 4.78-.932.123zm4.722 8.393-4.093-7.608-.04.005-2.092 8.427z" fill="#ac0270"/><path d="m272.045 68.935.004-.76 10.94.058-.004.76-5.04-.027-.072 13.52-.88-.005.072-13.519z" fill="#ac0270"/><path d="m293.121 69.221.869.139-1.028 6.398 9.004 1.447 1.028-6.398.869.14-2.265 14.099-.869-.14 1.117-6.951-9.005-1.446-1.116 6.951-.869-.14z" fill="#ac0270"/><path d="m314.605 73.723.848.234-3.806 13.764-.849-.235z" fill="#ac0270"/><path d="m326.419 77.509 1.009.439 3.048 15.61.037.016 5.224-12.013.807.351-5.695 13.095-.954-.415-3.063-15.726-.036-.016-5.264 12.105-.807-.351z" fill="#ac0270"/><path d="m342.651 93.32q.828-1.274 1.952-2.178 1.123-.904 2.411-1.307 1.288-.404 2.668-.235 1.381.17 2.739 1.052.923.6 1.587 1.413.664.813.989 1.763.325.951.298 1.983-.026 1.032-.486 2.069l-.704-.458q.605-1.848.092-3.446-.512-1.597-2.173-2.675-1.207-.785-2.435-.915-1.227-.129-2.36.256-1.133.385-2.121 1.209-.989.825-1.719 1.949-.741 1.14-1.09 2.356-.349 1.217-.227 2.369.122 1.152.755 2.196.634 1.044 1.875 1.85 1.074.697 2.158.901 1.084.203 2.093-.047 1.01-.251 1.895-.952.884-.701 1.553-1.841l-4.411-2.865.414-.637 5.049 3.279-3.814 5.87-.637-.414 1.656-2.549-.034-.022q-.643.513-1.422.758-.779.245-1.609.218-.829-.026-1.69-.299-.86-.272-1.648-.784-1.359-.883-2.091-2.05-.732-1.168-.909-2.475-.176-1.307.19-2.679.367-1.371 1.206-2.663z" fill="#ac0270"/><path d="m170.915 279.296.465.748-11.479 7.143 4.28 6.877-.645.401-4.745-7.624z" fill="#ac0170"/><path d="m179.583 292.028.545.691-11.211 8.845-.545-.69z" fill="#ac0170"/><path d="m185.316 298.992 6.204 6.464-.548.526-5.595-5.829-4.127 3.96 5.041 5.253-.548.526-5.041-5.252-5.079 4.874-.61-.635z" fill="#ac0170"/><path d="m196.276 309.724 7.524 5.962-.472.596-6.834-5.416-3.553 4.483 6.427 5.093-.472.595-6.427-5.092-3.9 4.922 6.912 5.477-.472.596-7.602-6.024z" fill="#ac0170"/><path d="m219.145 325.115.792.383-6.212 12.857-.793-.382z" fill="#ac0170"/><path d="m227.372 329.044 1.029.388 3.823 15.439.037.014 4.618-12.259.824.31-5.034 13.364-.973-.367-3.844-15.554-.038-.014-4.653 12.353-.824-.31z" fill="#ac0170"/><path d="m243.354 335.357.17-.741 10.663 2.445-.17.74-4.912-1.126-3.021 13.178-.858-.196 3.021-13.178z" fill="#ac0170"/><path d="m271.543 346.031q-.13 1.554-.702 2.881-.572 1.328-1.523 2.262-.95.934-2.254 1.408-1.304.473-2.898.341-1.595-.133-2.812-.816-1.218-.683-2.001-1.762-.783-1.079-1.128-2.482-.345-1.404-.216-2.958.13-1.555.702-2.882.572-1.327 1.522-2.261.951-.935 2.265-1.408 1.313-.472 2.908-.34 1.594.133 2.802.815 1.208.683 1.991 1.762.783 1.078 1.128 2.482.345 1.403.216 2.958zm-12.657-1.053q-.114 1.375.183 2.624.298 1.249.98 2.219.682.97 1.733 1.599 1.052.629 2.447.745 1.395.116 2.526-.331 1.131-.448 1.964-1.292.833-.844 1.332-2.026.5-1.183.615-2.558.114-1.376-.184-2.625-.297-1.248-.979-2.218-.682-.97-1.723-1.599-1.042-.628-2.437-.744-1.395-.116-2.536.331-1.141.447-1.974 1.29-.833.844-1.333 2.027-.499 1.183-.614 2.558z" fill="#ac0170"/><path d="m289.813 338.091 1.239-.226 7.883 12.078.04-.008 3.035-14.076 1.239-.227 2.571 14.047-.865.158-2.377-12.984-.039.007-2.975 13.964-.865.158-7.787-11.994-.039.007 2.376 12.985-.865.158z" fill="#ac0170"/><path d="m314.235 332.153.906-.318 10.056 11.602-.887.312-3.217-3.724-6.453 2.267-.199 4.925-.886.311zm6.342 7.247-5.566-6.608-.038.013-.321 8.678z" fill="#ac0170"/><path d="m326.062 327.563 5.305-2.716q.837-.428 1.653-.633.817-.204 1.565-.104.748.1 1.378.563.631.464 1.105 1.39.656 1.282.386 2.532-.27 1.25-1.442 2.12l.018.036q.927-.34 1.617-.244.69.096 1.203.485.514.389.904.975.39.587.709 1.21.192.374.374.73.182.356.377.649.195.294.412.52.217.226.451.331l-.873.446q-.477-.317-.809-.9-.332-.582-.66-1.223-.328-.641-.705-1.246-.377-.604-.917-.957-.54-.353-1.309-.341-.77.012-1.891.586l-4.522 2.315 2.962 5.786-.783.401zm8.505 3.533q.694-.356 1.204-.83.509-.475.754-1.05.245-.574.212-1.254-.033-.679-.425-1.445-.365-.712-.892-1.083-.526-.37-1.136-.463-.609-.092-1.269.066-.66.158-1.301.487l-4.522 2.315 2.853 5.572z" fill="#ac0170"/><path d="m341.368 319.062.716-.511 4.772 6.693 2.54-11.907.928-.661-1.86 8.621 10.476 2.773-.896.639-9.753-2.552-.843 3.917 2.926 4.104-.716.511z" fill="#ac0170"/><path d="m355.053 308.598 6.948-6.625.525.55-6.311 6.018 3.947 4.14 5.935-5.659.524.55-5.935 5.659 4.334 4.545 6.383-6.087.525.55-7.021 6.694z" fill="#ac0170"/><path d="m366.13 298.657-.592-.477 6.856-8.525.592.477-3.159 3.927 10.536 8.473-.551.686-10.536-8.473z" fill="#ac0170"/><path d="m383.921 278.962q-.81-.439-1.573-.489-.763-.05-1.466.228-.703.278-1.327.871-.625.594-1.129 1.434-.309.514-.544 1.178-.234.664-.238 1.35-.003.686.307 1.315.311.63 1.065 1.082.738.443 1.417.361.679-.083 1.312-.496.633-.413 1.257-1.065.624-.652 1.241-1.331.628-.696 1.29-1.314.662-.617 1.386-.988.723-.37 1.531-.375.808-.005 1.7.53.96.576 1.365 1.379.405.802.441 1.675.036.873-.242 1.744-.278.872-.7 1.575-.648 1.08-1.446 1.884-.797.805-1.742 1.194-.945.389-2.01.299-1.065-.091-2.238-.818l.453-.755q.981.658 1.881.732.9.074 1.712-.267.811-.342 1.502-1.047.691-.704 1.236-1.613.33-.549.568-1.257.239-.709.226-1.427-.011-.719-.332-1.389-.321-.671-1.127-1.155-.772-.463-1.477-.396-.704.067-1.36.479-.655.411-1.282 1.049-.628.638-1.256 1.335-.617.679-1.276 1.31-.658.631-1.36 1.003-.701.372-1.475.398-.773.026-1.648-.499-.874-.525-1.279-1.269-.405-.744-.436-1.568-.03-.823.232-1.668.262-.846.694-1.566.577-.96 1.29-1.664.713-.703 1.544-1.056.83-.353 1.776-.298.947.054 1.99.61z" fill="#ac0170"/><g fill="#ac0070"><path d="m185.747 147.07c.24 1.8.32 3.04.32 6.04v13.76c0 5.04-2.28 7.44-7.08 7.44-4.68 0-6.96-2.4-6.96-7.44v-13.76c0-2.96.08-4.56.32-6.04h-8.64c.24 1.52.32 3.28.32 6.04v13.68c0 4.48 1.2 7.96 3.52 10.44 2.4 2.52 6.44 3.92 11.4 3.92 9.64 0 15.12-5.16 15.12-14.28v-13.76c0-2.88.08-4.32.32-6.04z"/><path d="m210.787 152.07c-1.56-2.32-2.44-3.92-2.84-5h-8.68c.24 1.84.32 3.64.32 5.96v21.04c0 2.96-.08 4.72-.32 6.28h8.52c-.24-1.72-.32-3.48-.32-6.24v-8.96c0-1.96-.08-4.16-.28-5.96 1.12 2.12 1.8 3.32 2.88 4.92l7.4 11.16c1.36 2.08 2.28 3.56 3 5.08h8.76c-.2-1.68-.32-3.52-.32-5.96v-21.24c0-2.6.08-4.28.32-6.08h-8.52c.24 1.84.32 3.44.32 6.08v9.12c0 2.24.08 4.08.24 5.92-.96-1.76-1.72-3.04-2.88-4.76z"/><path d="m252.307 180.35c3.2 0 5.16.08 6.64.28v-7.68c-1.88.24-3.24.28-6.64.28h-9.68v-19.84c0-3.12.04-4.24.32-6.32h-8.72c.24 1.92.32 3.64.32 6.44v21.12c0 2.68-.08 4.44-.32 5.84 1.52-.08 3.16-.12 5.92-.12z"/><path d="m286.747 173.15c-1.72.2-3.48.28-6.52.28h-10.32v-6.72h8.64c2.76 0 4.12.08 6 .28v-7.4c-2.4.24-3.36.28-6 .28h-8.64v-5.88h10.4c2.68 0 4.12.08 5.96.28v-7.48c-1.88.2-3.24.28-5.96.28h-12.76c-3.12 0-4.24-.04-5.88-.12.24 1.96.32 3.36.32 5.84v21.84c0 2.76-.08 4.24-.32 5.84 1.72-.08 2.84-.12 5.88-.12h12.6c3.44 0 4.88.08 6.6.28z"/><path d="m322.867 180.35c-.52-1.12-1.16-2.76-1.92-4.88l-8.68-24.08c-.8-2.12-1.08-3.16-1.36-4.32h-10.44c-.2 1.16-.56 2.36-1.28 4.32l-8.64 24.08c-.96 2.72-1.32 3.68-1.92 4.88h9.36c.2-1.48.48-2.72 1-4.32l1.08-3.4h11.4l1.08 3.4c.4 1.36.64 2.4.96 4.32zm-13.36-14.44h-7.52l3.72-12z"/><path d="m324.627 170.31c.28 1.84.48 2.76.88 3.72.84 2.28 2.32 4 4.32 5.12 2.16 1.24 5.52 1.96 8.92 1.96 4.68 0 8.2-1.16 10.52-3.4 1.84-1.8 2.8-4.36 2.8-7.36 0-3.68-1.44-6.36-4.32-8.16-1.52-.96-3.44-1.64-6.48-2.28-4.72-.96-4.72-.96-5.52-1.32-1.28-.6-1.88-1.44-1.88-2.56 0-1.84 1.8-3.16 4.24-3.16 3.04 0 4.48 1.08 4.96 3.68l8.48-.92c-.52-2.28-1-3.48-2-4.8-2.16-3-6.04-4.56-11.12-4.56-7.88 0-12.84 3.88-12.84 10.04 0 3.24 1.36 5.92 3.88 7.68 1.48 1.04 2.76 1.52 6.44 2.32 4.16.96 5.16 1.24 6 1.64 1.04.48 1.68 1.56 1.68 2.8 0 2.24-1.84 3.6-4.92 3.6-2.04 0-3.72-.68-4.68-1.88-.6-.8-.88-1.52-1.04-2.96z"/><path d="m377.627 147.07c.24 1.56.32 3.16.32 5.92v6.64h-13.48v-6.64c0-2.48.08-4.04.32-5.92h-8.6c.24 1.72.32 3.16.32 5.92v21.44c0 2.8-.08 4.28-.32 5.92h8.6c-.24-1.8-.32-3.32-.32-5.92v-7.76h13.48v7.76c0 2.76-.08 4.24-.32 5.92h8.6c-.24-1.96-.32-3.32-.32-5.92v-21.44c0-2.8.08-4.28.32-5.92z"/><path d="m177.021 196.766h3.503c2.232 0 3.441.062 4.836.217v-5.921c-1.426.155-2.666.217-4.836.217h-13.578c-1.891 0-3.596-.093-4.619-.217v5.921c2.201-.186 2.728-.217 4.681-.217h3.658v15.624c0 1.953-.062 3.224-.248 4.681h6.851c-.186-1.457-.248-2.821-.248-4.681z"/><path d="m204.363 191.279c.186 1.209.248 2.449.248 4.588v5.146h-10.447v-5.146c0-1.922.062-3.131.248-4.588h-6.665c.186 1.333.248 2.449.248 4.588v16.616c0 2.17-.062 3.317-.248 4.588h6.665c-.186-1.395-.248-2.573-.248-4.588v-6.014h10.447v6.014c0 2.139-.062 3.286-.248 4.588h6.665c-.186-1.519-.248-2.573-.248-4.588v-16.616c0-2.17.062-3.317.248-4.588z"/><path d="m234.34 211.491c-1.333.155-2.697.217-5.053.217h-7.998v-5.208h6.696c2.139 0 3.193.062 4.65.217v-5.735c-1.86.186-2.604.217-4.65.217h-6.696v-4.557h8.06c2.077 0 3.193.062 4.619.217v-5.797c-1.457.155-2.511.217-4.619.217h-9.889c-2.418 0-3.286-.031-4.557-.093.186 1.519.248 2.604.248 4.526v16.926c0 2.139-.062 3.286-.248 4.526 1.333-.062 2.201-.093 4.557-.093h9.765c2.666 0 3.782.062 5.115.217z"/><path d="m247.05 209.29c.217 1.426.372 2.139.682 2.883.651 1.767 1.798 3.1 3.348 3.968 1.674.961 4.278 1.519 6.913 1.519 3.627 0 6.355-.899 8.153-2.635 1.426-1.395 2.17-3.379 2.17-5.704 0-2.852-1.116-4.929-3.348-6.324-1.178-.744-2.666-1.271-5.022-1.767-3.658-.744-3.658-.744-4.278-1.023-.992-.465-1.457-1.116-1.457-1.984 0-1.426 1.395-2.449 3.286-2.449 2.356 0 3.472.837 3.844 2.852l6.572-.713c-.403-1.767-.775-2.697-1.55-3.72-1.674-2.325-4.681-3.534-8.618-3.534-6.107 0-9.951 3.007-9.951 7.781 0 2.511 1.054 4.588 3.007 5.952 1.147.806 2.139 1.178 4.991 1.798 3.224.744 3.999.961 4.65 1.271.806.372 1.302 1.209 1.302 2.17 0 1.736-1.426 2.79-3.813 2.79-1.581 0-2.883-.527-3.627-1.457-.465-.62-.682-1.178-.806-2.294z"/><path d="m284.746 196.766h3.503c2.232 0 3.441.062 4.836.217v-5.921c-1.426.155-2.666.217-4.836.217h-13.578c-1.891 0-3.596-.093-4.619-.217v5.921c2.201-.186 2.728-.217 4.681-.217h3.658v15.624c0 1.953-.062 3.224-.248 4.681h6.851c-.186-1.457-.248-2.821-.248-4.681z"/><path d="m318.381 217.071c-.775-1.643-1.147-2.418-1.488-3.286-1.395-3.348-1.829-4.402-2.294-5.394-.992-2.201-1.705-2.914-3.286-3.41 1.519-.496 2.17-.837 2.945-1.55 1.209-1.147 1.829-2.883 1.829-5.084 0-4.464-2.914-7.068-7.936-7.068h-8.06c-2.108 0-3.255-.031-4.619-.093.186 1.488.248 2.635.248 4.557v16.678c0 2.294-.062 3.224-.248 4.65h6.665c-.186-1.426-.248-2.573-.248-4.681v-5.084h3.162c.992 0 1.767.248 2.418.837.775.682 1.147 1.395 2.139 4.092.961 2.573 1.333 3.844 1.519 4.836zm-16.492-15.066v-5.518h4.867c1.922 0 2.914.899 2.914 2.635 0 1.767-1.116 2.883-2.945 2.883z"/><path d="m340.391 211.491c-1.333.155-2.697.217-5.053.217h-7.998v-5.208h6.696c2.139 0 3.193.062 4.65.217v-5.735c-1.86.186-2.604.217-4.65.217h-6.696v-4.557h8.06c2.077 0 3.193.062 4.619.217v-5.797c-1.457.155-2.511.217-4.619.217h-9.889c-2.418 0-3.286-.031-4.557-.093.186 1.519.248 2.604.248 4.526v16.926c0 2.139-.062 3.286-.248 4.526 1.333-.062 2.201-.093 4.557-.093h9.765c2.666 0 3.782.062 5.115.217z"/><path d="m362.99 211.491c-1.333.155-2.697.217-5.053.217h-7.998v-5.208h6.696c2.139 0 3.193.062 4.65.217v-5.735c-1.86.186-2.604.217-4.65.217h-6.696v-4.557h8.06c2.077 0 3.193.062 4.619.217v-5.797c-1.457.155-2.511.217-4.619.217h-9.889c-2.418 0-3.286-.031-4.557-.093.186 1.519.248 2.604.248 4.526v16.926c0 2.139-.062 3.286-.248 4.526 1.333-.062 2.201-.093 4.557-.093h9.765c2.666 0 3.782.062 5.115.217z"/><path d="m379.389 196.766h3.503c2.232 0 3.441.062 4.836.217v-5.921c-1.426.155-2.666.217-4.836.217h-13.578c-1.891 0-3.596-.093-4.619-.217v5.921c2.201-.186 2.728-.217 4.681-.217h3.658v15.624c0 1.953-.062 3.224-.248 4.681h6.851c-.186-1.457-.248-2.821-.248-4.681z"/><path d="m185.741 265.536c.23-1.472.828-3.496 1.978-6.762l4.462-12.604c.598-1.656 1.058-3.312 2.07-6.9-.046.69-.046.69-.184 3.128-.092 1.426-.23 4.876-.23 5.98v10.028c0 3.266-.092 5.014-.368 7.13h9.062c-.276-1.84-.368-3.634-.368-7.13v-23.966c0-3.082.092-4.968.368-7.176h-12.19c-.276 1.932-.644 3.404-1.702 6.486l-6.854 19.826-6.9-19.826c-1.058-3.036-1.426-4.508-1.748-6.486h-12.144c.23 1.978.368 4.416.368 7.176v23.966c0 3.128-.092 5.06-.368 7.13h9.062c-.276-1.932-.368-3.956-.368-7.13v-9.982c0-2.438-.184-6.21-.46-9.108.23.644.23.644.736 2.3.138.368 1.518 4.646 1.564 4.876l4.232 12.236c1.242 3.496 1.748 5.198 1.978 6.808z"/><path d="m245.127 265.536c-.598-1.288-1.334-3.174-2.208-5.612l-9.982-27.692c-.92-2.438-1.242-3.634-1.564-4.968h-12.006c-.23 1.334-.644 2.714-1.472 4.968l-9.936 27.692c-1.104 3.128-1.518 4.232-2.208 5.612h10.764c.23-1.702.552-3.128 1.15-4.968l1.242-3.91h13.11l1.242 3.91c.46 1.564.736 2.76 1.104 4.968zm-15.364-16.606h-8.648l4.278-13.8z"/><path d="m282.295 265.536c-1.15-2.438-1.702-3.588-2.208-4.876-2.07-4.968-2.714-6.532-3.404-8.004-1.472-3.266-2.53-4.324-4.876-5.06 2.254-.736 3.22-1.242 4.37-2.3 1.794-1.702 2.714-4.278 2.714-7.544 0-6.624-4.324-10.488-11.776-10.488h-11.96c-3.128 0-4.83-.046-6.854-.138.276 2.208.368 3.91.368 6.762v24.748c0 3.404-.092 4.784-.368 6.9h9.89c-.276-2.116-.368-3.818-.368-6.946v-7.544h4.692c1.472 0 2.622.368 3.588 1.242 1.15 1.012 1.702 2.07 3.174 6.072 1.426 3.818 1.978 5.704 2.254 7.176zm-24.472-22.356v-8.188h7.222c2.852 0 4.324 1.334 4.324 3.91 0 2.622-1.656 4.278-4.37 4.278z"/><path d="m306.445 242.398 9.614-10.074c.828-.828.828-.828 3.22-3.22.644-.644.966-1.012 1.794-1.84h-12.42c-1.012 1.702-2.208 3.266-4.002 5.152l-9.154 9.798v-8.142c0-2.898.092-4.416.368-6.808h-9.752c.276 2.208.368 4.002.368 6.808v24.656c0 2.76-.092 4.462-.368 6.808h9.752c-.276-2.438-.368-3.956-.368-6.808v-5.796l4.646-4.646 7.13 11.408c1.196 1.932 2.53 4.37 3.174 5.842h11.96c-1.564-1.932-2.162-2.76-4.876-6.808z"/><path d="m354.515 257.256c-1.978.23-4.002.322-7.498.322h-11.868v-7.728h9.936c3.174 0 4.738.092 6.9.322v-8.51c-2.76.276-3.864.322-6.9.322h-9.936v-6.762h11.96c3.082 0 4.738.092 6.854.322v-8.602c-2.162.23-3.726.322-6.854.322h-14.674c-3.588 0-4.876-.046-6.762-.138.276 2.254.368 3.864.368 6.716v25.116c0 3.174-.092 4.876-.368 6.716 1.978-.092 3.266-.138 6.762-.138h14.49c3.956 0 5.612.092 7.59.322z"/><path d="m378.849 235.406h5.198c3.312 0 5.106.092 7.176.322v-8.786c-2.116.23-3.956.322-7.176.322h-20.148c-2.806 0-5.336-.138-6.854-.322v8.786c3.266-.276 4.048-.322 6.946-.322h5.428v23.184c0 2.898-.092 4.784-.368 6.946h10.166c-.276-2.162-.368-4.186-.368-6.946z"/></g></svg>