<?xml version="1.0" standalone="no"?>
<!DOCTYPE svg PUBLIC "-//W3C//DTD SVG 20010904//EN"
 "http://www.w3.org/TR/2001/REC-SVG-20010904/DTD/svg10.dtd">
<svg version="1.0" xmlns="http://www.w3.org/2000/svg"
 width="700.000000pt" height="700.000000pt" viewBox="0 0 700.000000 700.000000"
 preserveAspectRatio="xMidYMid meet">
<metadata>
Created by potrace 1.11, written by Peter Selinger 2001-2013
</metadata>
<g transform="translate(0.000000,700.000000) scale(0.100000,-0.100000)"
fill="#000000" stroke="none">
<path d="M3378 6595 c-2 -1 -39 -5 -83 -8 -44 -4 -107 -11 -140 -16 -33 -5
-73 -12 -90 -14 -16 -3 -50 -10 -75 -17 -25 -7 -52 -13 -60 -15 -40 -8 -160
-44 -176 -53 -11 -6 -23 -10 -27 -10 -4 0 -22 -5 -40 -12 -18 -7 -45 -18 -62
-24 -16 -6 -91 -41 -165 -78 -594 -293 -1046 -834 -1237 -1478 -28 -98 -26
-88 -41 -160 -41 -197 -53 -314 -52 -510 1 -147 4 -211 13 -265 3 -16 8 -52
12 -80 3 -27 8 -57 10 -65 2 -8 7 -31 10 -50 24 -147 122 -447 206 -628 16
-35 29 -70 29 -78 0 -8 5 -14 10 -14 6 0 10 -6 10 -14 0 -7 21 -54 46 -102 86
-166 129 -247 139 -263 6 -9 37 -61 69 -116 89 -149 412 -625 446 -655 3 -3
25 -32 49 -65 25 -33 56 -74 70 -91 14 -17 33 -40 41 -50 50 -63 145 -180 150
-184 3 -3 28 -32 55 -65 28 -33 55 -65 60 -71 9 -10 98 -111 138 -158 16 -18
75 -84 182 -201 57 -62 308 -325 437 -457 133 -137 134 -138 179 -138 46 0 46
0 195 153 342 352 583 613 755 817 26 30 77 92 115 136 127 150 291 361 450
579 231 316 494 767 624 1070 28 66 57 134 65 150 58 131 153 481 170 625 3
25 8 72 12 105 9 77 8 330 -1 420 -75 719 -445 1340 -1041 1747 -282 192 -680
345 -1000 382 -27 3 -70 9 -95 12 -45 6 -357 13 -362 9z"/>
</g>
</svg>
