<svg height="2778.667" viewBox="0 0 2084 2084" width="2778.667" xmlns="http://www.w3.org/2000/svg"><path d="m0 1041.5v1041.5h2083v-2083h-2083zm1093.5-1012.4c102.6 6.2 205.1 33.7 297.5 79.9 269.2 134.5 437.4 410.9 431.7 709.5-.6 33-2.2 53.3-6.8 85-11.7 82.4-37.4 167.4-78.7 261-13.5 30.7-44.1 91.8-62 124-122.1 219.5-314.4 461-582.1 730.8l-40.4 40.7h-28.4l-44.4-45.3c-44.8-45.7-90.9-93.6-120.9-125.7-287.7-308-470.8-580.4-549.4-817.3-42.5-128-54.5-242.5-38.1-364.3 19.4-143.3 79.1-280.2 171.4-392.8 31.1-37.9 64.3-71.6 101.8-103.4 143.3-121.4 325.1-186.8 510.3-183.5 11.8.2 29.2.8 38.5 1.4z"/><path d="m1004.5 57.6c-107.1 6.6-202.2 32.2-295.5 79.5-222.4 112.7-377 331.3-408.9 578.3-4.8 36.7-5.5 49.3-5.6 95.6 0 48.6.7 59.7 6.6 100.5 37 258.9 220.7 567.3 553.7 929.7 67.5 73.4 180.4 189.8 184.2 189.8 2.3 0 74.4-73.2 129.1-131 386.8-409.1 593.7-751.2 622.3-1029 5.2-49.6 4.3-103.5-2.4-158-24.2-195.9-126.4-375.4-283.5-498.1-85.2-66.6-185.4-114.4-290.7-138.8-32.6-7.5-68.8-13.3-104.8-16.7-16.5-1.5-88.6-2.8-104.5-1.8zm105.5 22.8c22.1 2.3 37.3 4.3 54.5 7.2 197.9 33.1 373.7 146.8 485.6 314.1 77.9 116.4 119.5 248.8 122.6 389.8 2.7 125.9-32.4 257.7-109.8 412.5-95.1 190-248.8 399.4-466.3 635-39.7 42.9-106.5 112.7-139.8 145.8l-18.4 18.3-46-47.3c-63-64.8-88.8-92-132.5-139.8-354.8-388.4-535.4-713.3-544.8-979.9-1.3-36.8.5-76.7 5-113.1 27.8-224.8 158.5-425.5 352.9-542.2 99-59.5 205.9-93.2 322.5-101.7 19.4-1.5 96.4-.6 114.5 1.3z"/><path d="m1029 181.5c0 1.2 1.8 1.5 10.5 1.5h10.5v28.6c0 26.6.1 28.5 1.8 28.2 1.6-.3 1.7-2.6 2-28.6l.2-28.2h10.5c8.7 0 10.5-.3 10.5-1.5 0-1.3-3.2-1.5-23-1.5s-23 .2-23 1.5zm88 3.2c0 .5-2 13.3-4.5 28.7-2.5 15.3-4.5 28.2-4.5 28.7s.8.9 1.8.9c1.4 0 2-2.1 3.9-13.6 1.1-7.4 2.3-13.8 2.6-14.1.3-.2 8.7.8 18.6 2.4 16.5 2.5 18.1 3 18.1 4.8 0 1.1-.9 7.4-2 14-2.4 14.5-2.4 13.5-.2 13.5 1.5 0 2.3-3.4 6.1-27.3 2.3-14.9 4.5-28.2 4.8-29.5.4-1.7.1-2.2-1.5-2.2-1.8 0-2.2 1.3-3.8 12.1-1 6.6-2.2 12.5-2.5 13.1-.5.8-6.1.3-18.8-1.7-21-3.3-19.1-1.2-16.2-18 1.4-8.1 1.6-11.2.7-11.7-1.4-1-2.6-1-2.6-.1zm-143.3 1c-.5.8-15.7 59.7-15.7 60.7 0 .3.8.6 1.8.6 1.5 0 2.3-1.9 4.2-10 1.3-5.5 2.7-10 3-10 1 0 22.1-2.9 25.1-3.4 2.4-.5 3 .2 7.5 8.5 3.3 6.1 5.4 8.9 6.6 8.9 1 0 1.8-.3 1.8-.6 0-.4-6.8-13-15.2-28-10.9-19.7-15.7-27.4-16.9-27.4-1 0-2 .3-2.2.7zm14.6 25.5c2.6 4.9 4.6 8.9 4.5 8.9-.2.1-5.8.9-12.5 1.8-9.3 1.3-12.3 1.4-12.3.5 0-1.2 6.7-29.8 7.6-32.4.3-.9 1.9 1.2 4.3 5.5 2 3.9 5.8 10.9 8.4 15.7zm-95.2-9.6c-10.1 3-18.6 5.6-18.8 5.8-.5.4 15.2 55.4 16 56.2.5.5 36-9.1 37.9-10.2.4-.3.5-1.1.2-1.8-.4-1-4.4-.2-17.6 3.6-9.4 2.7-17.4 4.6-17.8 4.1-1.2-1.3-7.3-23.3-6.7-23.9.5-.5 16.2-5.3 28-8.5 2.1-.5 3.7-1.6 3.7-2.4s-.3-1.5-.8-1.5c-.4 0-7.9 2-16.6 4.5s-15.9 4.5-16.1 4.3c-.1-.2-1.4-4.8-3-10.3-1.5-5.5-2.9-10.5-3.2-11.1-.2-.6 6.5-3 16.4-5.9 17.3-5 19.4-5.8 17.8-7.4-.6-.5-8.7 1.4-19.4 4.5zm313.6 2.2c-.5.9-15.7 55.6-15.7 56.5 0 .4.8.7 1.8.7 1.4 0 3-4.8 9.2-27.2 4.1-14.9 7.6-27.7 7.8-28.3.3-1.4-2.5-2.9-3.1-1.7zm47.3 19.4c-12.8 29.1-21 48.4-21 49.4 0 .6.6 1.4 1.3 1.7.9.3 4.7-7.3 12.1-24.4 6-13.8 11-24.8 11.1-24.7.2.2 3.1 14.7 6.6 32.3 3.4 17.6 6.7 32.3 7.3 32.7s1.6.8 2.2.8c.9 0 22.9-49.2 23.6-52.9.2-.8-.4-1.6-1.2-1.8-1.1-.2-4.3 6.2-12 24.1-5.8 13.4-10.8 24.1-11.1 23.8-.3-.4-3.4-14.8-6.7-32.1-3.6-18.7-6.6-31.8-7.4-32.2-2.2-1.5-2.9-1-4.8 3.3zm-442 8.7c-3.6 1.5-10 4.4-14.2 6.4l-7.8 3.6 2.9 6.3c9.6 21.3 21.4 46.4 21.9 47 .4.4 1.3.4 2-.1 1-.6 0-3.6-4.2-12.7-3-6.5-5.2-12.2-5-12.5.9-1.4 23.3-10.9 25.8-10.9 5.2 0 8.1 2.6 12.5 10.9 4.5 8.8 5.1 9.4 7.6 8.5 1.4-.6 1.4-.9.2-2.3-.8-.9-3.1-4.9-5.3-9-4.2-8.2-8-11.4-13-10.9l-3 .4 2.3-3.4c3.6-5.4 3.9-9.3 1-15.6-4.2-9.2-11.6-11-23.7-5.7zm14.5 1.5c4.4 1.9 7.5 6.9 7.5 12.3 0 6.4-3.4 9.6-16.9 15.9-6.3 3-11.5 5.3-11.6 5.2-1.5-1.6-10.4-23.3-9.8-23.8 1-.9 19-9 22.3-10 3.7-1.2 4.7-1.1 8.5.4zm513.5 37.3c-6.7 2.4-17.1 13.2-19.8 20.6-3 7.9-2.9 16.6.2 23.3 5.5 11.9 21 18.6 32.1 13.9 3.5-1.4 3.5-1.4 2.4.8-.7 1.2-2 3.4-3 4.8-1.7 2.5-1.6 3.9.3 3.9 1.2 0 16-22.9 15.4-23.9-.3-.4-4.8-3.6-10.1-7.1-7.2-4.7-9.9-6-10.7-5.2-1.4 1.4-2.2.7 8.5 7.6 9.6 6.2 9.7 6.4 4 11.7-9.1 8.6-22 7.8-31.6-1.8-5-4.9-7.1-10.9-6.4-17.7 1.7-16.2 18.1-31.4 31.5-29.1 6.2 1 13.8 6 16.6 10.7 3.2 5.6 3.9 9.5 2.7 14.7-.7 3.4-.6 4.3.5 4.8 2.1.8 2.6-.1 3.2-5.7 1-10.4-4.6-20-14.4-25-6.2-3-15.1-3.6-21.4-1.3zm-603.5 2c-6.4 3.3-23.6 14.6-23.3 15.3 1 2.4 31.2 49 31.8 49 1.3 0 21.6-13.3 24.7-16.3 6.5-6.2 7.9-13.3 4-20.2-2.9-5.2-7.8-7.7-13.8-7.2l-4.5.4 1.8-3.6c3.1-6.1 1.8-11.4-4.2-16.5-2.5-2.1-4.2-2.6-8.3-2.6-2.9.1-6.5.8-8.2 1.7zm15.1 4.7c2.9 2.9 3.4 4.1 3.4 7.9 0 5.8-2.2 8.5-12.5 15.2-13.4 8.6-11.4 8.8-18.4-2-3.4-5.2-6.1-9.8-6.1-10.3 0-.4 1.2-1.4 2.8-2.3 1.5-.9 6.5-4 11.1-6.8 10.6-6.4 14.6-6.8 19.7-1.7zm13.8 19.8c2.9 1.3 5.4 4.7 6.7 9.1.6 2.3.4 4.1-1.1 7.4-1.6 3.7-3.5 5.4-13.2 11.7-8.4 5.5-11.6 7.1-12.4 6.3-.6-.7-3.8-5.6-7.2-11l-6.2-9.7 8.7-5.7c14.2-9.1 19.1-10.7 24.7-8.1zm522.6 210.3c-24.6 5.7-37.1 20.8-35.8 43 .7 10.1 3.7 17.3 10.2 24.3 6.9 7.4 12.5 9.9 34.3 15.3 10.8 2.7 21.1 5.7 23.1 6.7 6.8 3.5 9 12.1 4.7 18.5-4.5 6.9-19.5 9.2-29.8 4.4-6.2-2.8-9.1-6.3-10.8-13-.9-3.6-1.5-4.6-2.8-4.3-.9.3-8.2 1-16.3 1.7-8.2.7-15.3 1.6-15.9 2-.9.5-.7 2.6.5 7.9 4.1 18.1 15.2 29.4 34.1 34.6 9.3 2.5 31.3 3 41.6.9 22.1-4.4 34.4-16.8 37.1-37.2 3.1-22.7-8-39-31.7-46.6-2.7-.9-11.4-3-19.3-4.7-15.7-3.3-18.9-4.6-22.2-8.7-4.2-5.3-.9-13.7 6.7-16.9 4.4-1.9 14.4-1.8 19.3.2 4.3 1.7 7.4 5.3 8.5 9.7.4 1.5 1.1 2.9 1.5 3.2.7.5 24.4-1.8 32.7-3.1l3.2-.5-1.6-5.2c-5.2-17.5-16.5-27.7-35.7-32.1-8.1-1.9-27.7-2-35.6-.1zm-302 1.2c0 .2 0 31.6-.1 69.8v69.5l52.1.2 52 .3v-30.1l-35 .4-35 .5v-28.6l30.5.5 30.5.6v-30.3l-30.5.3-30.5.4v-24.5l34 .5 34 .5v-30.2h-51c-28 0-51 .1-51 .2zm-408.3 28c.8 74.3.7 73.5 7.4 87.3 6.3 12.8 19.5 22 36.1 25.4 10.2 2.1 29.7 2.1 39.1 0 21.1-4.7 35.6-18 41.2-37.9 1.8-6.1 2-13.4 2.8-80.3l.2-22.2h-35v45.7c0 42.2-.1 46.2-1.9 51.2-4 11.5-13.6 16.7-29.5 15.9-10.7-.5-16.1-3.1-20.8-10.1-5.2-7.7-5.5-11.4-5.1-59.3l.3-43.4h-35zm147.8 41.8v69.5h35.1l-.3-18.3c-.2-10-.4-29.2-.6-42.5l-.3-24.4 2 3.7c1.2 2.1 11.9 18.6 23.9 36.9 12 18.2 23.3 35.7 25 38.8l3.2 5.8h36v-139h-17.9c-16.6 0-17.8.1-17.1 1.7.5 1 1 20.2 1.2 42.8l.5 41-4.9-8c-2.7-4.4-13.7-21.1-24.4-37-10.7-16-20.7-31.6-22.4-34.7l-3-5.8h-36zm146.2 0 .3 69.5 51.5.2 51.5.3v-31l-34 .4-34.1.3.3-54.6.3-54.6h-36zm274.3-64.8c-1.4 5.7-44.6 126.6-46.6 130.5-.8 1.5-1.4 2.9-1.4 3.3 0 .3 8.9.5 19.8.5h19.7l1.2-6.3c.7-3.4 2.6-10.6 4.3-16l3.1-9.7 23.6.2 23.5.3 3 9.5c1.6 5.2 3.4 12.3 4.1 15.7l1.2 6.3h19.7c10.9 0 19.8-.1 19.8-.3s-1.2-3.2-2.6-6.8c-3.4-8.2-40.8-111.7-44.5-122.9l-2.7-8.5-22-.3-22-.2zm30.9 49.2c3.9 12.3 7.1 22.8 7.1 23.2 0 .5-6.5.9-14.5.9-8.6 0-14.5-.4-14.5-1 0-.5 2.3-8.3 5-17.2 7.1-22.7 9.2-29 9.5-28.6.2.2 3.5 10.4 7.4 22.7zm202.6 15.6v69.5h35.2l-.5-28.5-.5-28.5h56.6l-.5 26.7c-.3 14.8-.9 27.6-1.3 28.5-.7 1.7.6 1.8 17.9 1.8h18.6l-.7-4.3c-1-5.5-1-124.9 0-130.5l.7-4.2h-18.6c-17.3 0-18.6.1-17.9 1.7.4 1 .9 12.7 1.2 26l.6 24.3h-56.6l.5-26 .5-26h-35.2zm-419.4 112.6c-14.8 1.7-27.7 10.8-31 21.9-1.6 5.3-1.4 15.9.5 21.3 2.1 6.2 8.3 13 14.7 16.1 2.9 1.4 11 3.9 18 5.6 17.3 4.1 20.2 5.4 22.2 9.7 1.5 3.1 1.5 4 .3 7-1.8 5-5.4 7.3-12.1 8-10.1 1-18.8-4.1-20.3-12.2-.5-3.1-.8-3.3-3.7-2.9-4.1.5-22.3 2.4-23.6 2.4s1.4 11.1 3.9 16c6.6 13 19.6 18.9 41.2 19 15.9 0 26.9-3.5 34.3-10.8 5.1-5.1 7.3-9.9 8.6-18.5.9-6.1.8-8.5-.5-13.5-4-15.5-13-21.4-42.7-27.7-12.6-2.7-16.7-6.7-13.9-13.6 1.7-4 6.3-6.2 13-6.3 7.2 0 11.3 2.2 13.6 7.4 2 4.5 1.5 4.4 13.9 3 16-1.8 15.6-1.7 14.9-4.8-4.7-20-24.1-30.2-51.3-27.1zm-388.1 13.7v12.2l17-.6 17-.7v42.4l-.1 42.4 13.9.3 13.8.3v-42.3l-.1-42.3 17.3.3 17.2.2v-24.5h-96zm256.5-12.1-37 .3v108h37.1c20.4 0 38.6.3 40.3.6l3.1.6v-24.7l-27 .3-27 .3v-21.3l23.5.4 23.5.3v-24l-23.5.3-23.5.3v-18.2l26.3.2 26.2.2.3-12.2.3-12.1-2.8.2c-1.5.2-19.4.4-39.8.5zm192.5 12.1v12.2l17-.6 17-.7v42.4l-.1 42.4 13.9.3 13.8.3v-42.3l-.1-42.3 17.3.3 17.2.2v-24.5h-96zm249.5-12.1-37 .3v108h37.1c20.4 0 38.6.3 40.3.6l3.1.6v-24.7l-27 .3-27 .3v-21.3l23.5.4 23.5.3v-24l-23.5.3-23.5.3v-18.2l26.3.2 26.2.2.3-12.2.3-12.1-2.8.2c-1.5.2-19.4.4-39.8.5zm94 0-37 .3v108h37.1c20.4 0 38.6.3 40.3.6l3.1.6v-24.7l-27 .3-27 .3v-21.3l23.5.4 23.5.3v-24l-23.5.3-23.5.3v-18.2l26.3.2 26.2.2.3-12.2.3-12.1-2.8.2c-1.5.2-19.4.4-39.8.5zm50.5 12.1v12.2l17-.6 17-.7v42.4l-.1 42.4 13.9.3 13.8.3v-42.3l-.1-42.3 17.3.3 17.2.2v-24.5h-96zm-736.5 42.2v54h27l-.4-22-.3-22h43.4l-.3 22-.4 22h27v-108h-27l.4 20 .3 20h-43.5l.5-20 .4-20h-27.1zm448 0v54h27l-.3-20.5-.4-20.5h6.8c16 0 19.5 3.7 28 29.6l3.7 11.4h30.5l-8.8-20.4c-9.4-21.8-11.6-25.8-16.2-28.6l-2.9-1.7 3.3-1.4c1.8-.7 5-2.9 7-4.7 10.4-9.4 10.5-32.4.1-42.4-8.5-8.1-12.4-8.8-48.3-8.8h-29.5zm53.8-29.8c1.5 1.1 3.1 3.5 3.8 5.8 1 3.4 1 4.6-.4 7.5-2.8 5.9-5.6 7-18.9 7.4l-11.8.3v-23.4l12.3.3c9.6.3 12.9.8 15 2.1zm-249.8 205.5v80.3h40l-.3-30-.4-30h12.6c8.6 0 13.7.4 15.9 1.4 4.8 2.1 10.3 8.3 13.6 15.7 3.6 7.9 14.1 38.6 14.1 41.1 0 1.7 1.8 1.8 23 1.8h23l-2.6-5.8c-1.5-3.1-6.6-14.9-11.4-26.2-13.7-32.2-15.9-36.1-23.7-40.7l-4.6-2.7 5.3-2c11.9-4.5 20.1-16.1 22-31.1 3-23.9-7.3-41.8-28-48.7-6.9-2.3-7.1-2.3-76-3.1l-22.5-.2zm77.8-45.3c1.8.7 4.3 2.6 5.7 4.1 2.2 2.3 2.5 3.6 2.5 10 0 8-1.3 10.8-6.9 14.9-2.5 1.9-4.4 2.1-21.2 2.4l-18.4.3v-33.1h17.5c12.7 0 18.5.4 20.8 1.4zm244.2 45.3v80.3h53c29.2 0 56 .3 59.8.7l6.7.6v-35.8l-40 .3-40 .4v-31.3l35 .3 35 .3v-35l-35 .3-35 .4v-27.3l39 .3 39 .3v-35h-117.5zm130.5-61.8v18.3l2.3-.6c1.2-.3 12.7-.9 25.5-1.3l23.3-.6-.3 63.1-.3 63.2h42.1l-.7-7.3c-.4-3.9-.8-32.4-.8-63.1l-.1-55.9 23.3.7c12.7.4 24.3.8 25.7.9l2.5.2.3-18 .2-18h-143zm-816.5 62.1v80h37.7l-.6-2.8c-.3-1.5-.9-18-1.1-36.7-.3-18.7-.7-41-.9-49.5l-.3-15.5 9.2 27.5c5.1 15.1 12.5 36.8 16.4 48.1 3.9 11.4 7.3 22.5 7.7 24.8l.7 4.1 16.9-.2 17-.3 1.8-7c1-3.9 6.2-19.4 11.5-34.5 5.4-15.1 12-34.5 14.7-43 5.8-18.2 7.1-21.3 6.3-15.5-.3 2.2-.8 20.9-1 41.5-.3 20.6-.7 42.3-.9 48.2l-.5 10.8h37.4v-160h-50.5l-.4 2.2c-2.5 11.3-5.9 22.1-19.3 60.7-13.8 40-16.3 46.8-16.3 44.9 0-.4-7-20.8-15.6-45.5-8.6-24.6-16.6-48.7-17.7-53.6l-2.1-8.7h-50.1zm242.1-78.8c-2.4 8.9-7.4 23.2-27.8 80.3-13.2 36.8-25.1 69.4-26.4 72.4-1.3 2.9-2.4 5.5-2.4 5.7s10.3.4 22.9.4h22.8l.7-4.8c.3-2.6 2.5-10.9 4.7-18.5l4.2-13.7h54.4l3.6 12.2c2 6.8 4.1 15.1 4.8 18.5l1.2 6.3h45.5l-3.3-8.3c-5.9-14.8-52.3-144.2-53-148l-.7-3.7h-25.4c-19.5 0-25.5.3-25.8 1.2zm34.7 61.8 8.4 26.5-17 .3c-9.3.1-17.1.1-17.3-.1-.3-.3 14.5-49.1 16.3-53.7.3-.8.7-1.1.9-.5.2.5 4.1 12.9 8.7 27.5zm245.2 17v80h40.7l-.6-2.8c-.3-1.5-.9-13.3-1.2-26.2l-.6-23.5 9.6-9.5c5.8-5.7 9.9-9.1 10.4-8.5 2.2 2.4 33.1 53 37.5 61.2l4.9 9.3h24.9c13.7 0 24.9-.2 24.9-.5s-1.9-3.1-4.2-6.2c-2.4-3.1-17.2-24.5-32.9-47.7l-28.7-42.1 5.1-5.5c2.8-3 16.5-17.3 30.5-31.8l25.4-26.2h-52.9l-3.1 4.7c-1.7 2.7-5.1 7.2-7.6 10.1-6.5 7.6-42.7 46.2-43.4 46.2s.6-54.8 1.4-58.3l.6-2.7h-40.7zm396 130c-4.4 1-6.9 2.5-10.4 6.5-6.9 7.9-9.8 18.3-6.8 24.2 4.5 8.6 13.8 11 21.3 5.4 2.1-1.6 7.2-6.3 11.3-10.5 8.7-8.9 12.6-10.7 18.3-8.3 7.7 3.2 9.5 12 4.3 21.5-5.6 10.4-14 14.9-22.1 12-3.7-1.3-4.5-1.3-5.5-.2-.9 1.1-.4 1.7 2.4 2.9 8.5 3.5 18.3.7 24.1-6.9 4.1-5.5 7.6-13.7 7.6-18.1 0-8.7-6.5-15.5-14.9-15.5-5.7 0-7.1.9-19.1 12.5-10.5 10.2-13.7 11.7-18.9 9-9.3-4.8-8.5-17.5 1.8-26.8 4.5-4.1 9.6-5.4 14.2-3.8 3.1 1.1 4.9.8 4.9-.9 0-2.3-7.7-4.1-12.5-3zm-902.2 22.3c-13.3 8.4-24.3 15.5-24.3 15.9 0 .3 4.3 7.6 9.7 16.2 7.3 11.9 9.9 15.3 10.9 14.5s-.8-4.2-7.6-15.2c-4.9-7.8-8.6-14.4-8.1-14.7.4-.3 11.1-7 23.8-14.9 16-9.9 23-14.7 22.6-15.7-.3-.8-1-1.4-1.7-1.3-.6.1-12 6.9-25.3 15.2zm850.8 45.4c-12.6 15.7-14.9 19.3-12.2 19.3.5 0 3.6-3.6 7.1-8 4-5.1 6.7-7.7 7.4-7.2.6.5 10.5 8.4 21.9 17.6 19.1 15.3 22.8 17.6 22.6 14.3 0-.7-8.6-8.1-19.2-16.5s-20.3-16.2-21.6-17.3l-2.4-1.9 6-7.3c7.4-9.1 7.6-9.4 5.8-10-.9-.4-5.9 5.1-15.4 17zm-810.6 8.9c-24.8 19.6-25.3 20-23.8 21.5.8.8 7.1-3.6 24.3-17.1 12.7-10.1 22.9-18.8 22.7-19.3-.2-.6-.7-1.2-1.3-1.4-.5-.1-10.3 7.2-21.9 16.3zm23.9 32.7c-18.3 17.5-21 20.4-19.8 21.7s2.8.1 11.8-8.9l10.3-10.3 10.4 11.1c8.1 8.6 10.6 10.8 11.6 9.9 1.1-.9-.7-3.2-8.7-11.3-5.5-5.6-10-10.6-10-11.1s3.6-4.5 8.1-8.9l8.1-8 11.7 12.2c8.5 8.8 12.1 11.9 12.9 11.1s-2.5-4.8-11.6-14.4c-7-7.4-12.9-13.4-13.2-13.4s-10 9.1-21.6 20.3zm744 4.9c-7.6 7.3-13.9 13.8-13.9 14.5 0 1.7 38.8 42.4 40.1 42.1.6-.2 7.3-6.3 14.9-13.6 10.3-9.8 13.6-13.5 12.7-14.4-.8-.8-4.5 2.2-14.3 11.6-7.3 6.9-13.6 12.3-13.9 11.9-.3-.5-4.4-4.7-9-9.6l-8.4-8.7 12.5-11.9c8.8-8.4 12.1-12.2 11.4-13-.8-.8-4.6 2.2-13.2 10.4-6.7 6.3-12.4 11.5-12.8 11.5-.3 0-4.2-3.7-8.5-8.3l-7.9-8.2 13.2-12.7c9.7-9.3 12.9-12.9 12.1-13.7-.8-.9-4.7 2.3-15 12.1zm-695.1 42.3c-9.8 12.4-17.9 22.8-18 23.2-.2.9 29 24.1 30.8 24.5.6.2 1.3-.2 1.6-.8.2-.6-5.9-6-13.6-12s-13.8-11.5-13.6-12.1c1.1-3.1 14.9-19.4 16.1-18.9.7.3 6.8 4.8 13.4 10.2 9 7.1 12.5 9.3 13.3 8.5 1.3-1.3 2.3-.4-13.1-12.5-11-8.6-12.1-9.9-11-11.4 7.4-10.2 13.3-17 14.2-16.3.6.5 6.9 5.4 14 11 7 5.5 13.2 10.1 13.6 10.1 3.3 0 .1-3.4-13.2-13.9-8.4-6.6-15.6-12.1-16-12.1s-8.7 10.1-18.5 22.5zm657.6-8.8c-.9 1-3.6 11.5-6.4 24.8-2.6 12.6-5.1 23.3-5.5 23.8-.3.4-4.8-5.1-9.9-12.3-6.1-8.6-9.9-13-10.9-12.8-.9.2-1.4.7-1.3 1.3.7 2.6 33.5 47.5 34.5 47.2 2-.7 1-3.2-4.3-10.4-2.8-3.9-5.1-7.8-5.1-8.7 0-1 .7-4.8 1.6-8.5l1.5-6.9 20.3 5.3c17 4.4 20.5 5 22 4 2.1-1.6 4.6-.7-21.4-7.6-10.7-2.8-19.6-5.3-19.8-5.4-.2-.2 1.3-7.8 3.3-17 1.9-9.3 3.4-17.2 3.3-17.7-.2-.5-1.1-.1-1.9.9zm-71.5 46.7c-4.6 1.5-26.4 12.8-26.4 13.7 0 2 26.4 51.9 27.4 51.9 2.7 0 2.2-1.5-3.5-12.4-3.2-6.2-5.9-11.7-5.9-12.2 0-1.7 22.8-12.4 26.4-12.4 4.5 0 7.8 2.8 12 10.4 4.1 7.3 5.7 8.9 8 8 1.6-.6 1.5-.8-.2-2.8-1.1-1.1-3.2-4.5-4.8-7.4-4-7.6-8.4-11.2-13.6-11.2h-4.1l2.3-2.5c3.6-3.9 3.9-11.2.7-16.8-2.7-4.6-7.6-7.8-11.9-7.6-1.2 0-4.1.6-6.4 1.3zm12.5 5.1c3.6 3.1 5.5 8.4 4.7 13-.9 4.6-5.7 8.5-17.6 14.5l-10 5-5.5-11c-3-6-5.6-11.3-5.6-11.7-.1-.4 5-3.3 11.2-6.5 13.2-6.8 17.8-7.4 22.8-3.3zm-497.9 24.6c-6.9 14.4-12.5 26.4-12.5 26.7 0 .4.7.8 1.6 1 1.1.2 4.9-6.8 14.2-25.9 7-14.4 12.4-26.5 12.1-27s-1.1-.9-1.7-.9c-.7 0-6.8 11.8-13.7 26.1zm45.2-4.9c-14.6 38.8-18.2 48.6-18.2 49.5 0 .6.6 1.3 1.4 1.6 1 .4 3.8-6.1 10.6-24.4 5.1-13.7 9.6-24.9 9.9-24.9s4.2 14.3 8.6 31.7c7.1 28.2 8.2 31.8 10.1 32.1 1.8.3 3.1-2.7 12.2-26.9 6.9-18.4 9.9-27.6 9.2-28.3-.6-.6-1.3-.6-1.9-.1-.5.6-4.8 11.3-9.6 24-4.8 12.6-9 23.6-9.5 24.4-.4.8-3.9-11.3-8.5-30-8.9-36.1-10.4-39.1-14.3-28.7zm364.5 7.5c-.3.5-1 12.5-1.6 26.8s-1.3 28.4-1.5 31.2c-.4 4.7-.2 5.3 1.5 5.3 1.6 0 1.9-.8 2-5.8 0-3.1.4-7.9.7-10.6l.7-4.8 12.9-4.6 13-4.5 7.2 7.9c5.6 6.1 7.5 7.6 8.5 6.7.9-.9-3.5-6.6-19.1-24.5-18.4-21.3-22.8-25.5-24.3-23.1zm14.2 16.5c6.1 7.2 10.8 13.5 10.4 13.9-1.4 1.2-22.3 8.2-22.9 7.6-.6-.5.6-34.7 1.2-34.7.1 0 5.2 5.9 11.3 13.2zm-309.7-4.6c.2 1.3 2.5 2.2 9.5 3.8 5 1.2 9.4 2.4 9.7 2.7.4.3-2.1 12.6-5.5 27.3s-5.9 26.9-5.6 27.3c2.1 2 3.7-2.6 9.1-26.3 3.2-14.3 6.2-26.3 6.6-26.7s4.9.2 10 1.3c6.3 1.4 9.6 1.8 10.3 1.1.6-.6.9-1.3.6-1.5-.2-.3-9.7-2.6-20.9-5.1-11.3-2.5-21.3-4.9-22.3-5.2-1.4-.4-1.8 0-1.5 1.3zm246.1 3.2c-1.3.2-2.3.6-2.3.9 0 1.4-12.2 56.8-12.6 57.2-.5.5 1.6 3.6-16.8-24.7-13.4-20.4-16.2-24.2-18.2-24.2-1.8 0-2.4.6-2.4 2.1 0 2.6 9.9 56.1 10.5 56.7.2.2 1 .2 1.8-.1 1.2-.4.5-5.2-3.4-26.8-2.7-14.4-4.8-26.4-4.6-26.5.1-.1 7.4 10.7 16.1 24.2 15.9 24.6 18.6 27.5 19.9 22.1.4-1.2 3.1-14.1 6.2-28.7 5-23.5 6.5-29.5 6.5-26.4 0 .5 2.1 12.5 4.7 26.6 4.2 23.2 4.8 25.8 6.6 25.8 1.5 0 1.8-.5 1.4-2.3-.3-1.2-2.6-14.1-5.2-28.7s-5-26.7-5.4-27.1c-.3-.3-1.6-.3-2.8-.1zm-164.3 10.1c-14.3 4.7-21.9 17.3-20.8 34.3 1.1 16.8 11.5 26.8 27.8 26.8 11.8 0 19.1-4.6 24.8-15.5 2.5-4.5 2.7-6 2.7-16 0-9.4-.3-11.6-2.2-15.1-3-5.7-7.9-10.3-13.2-12.7-4.9-2.1-15.1-3.1-19.1-1.8zm17.4 4.5c4.4 1.8 9.6 7.3 12 12.6 2.9 6.4 2.8 18.6-.3 25.5-4.3 9.7-12.3 15.4-21.5 15.5-15.5 0-25-10.3-24.9-27.3.1-13.4 6.7-23.8 17.5-27.3 4.7-1.5 12.3-1.1 17.2 1z"/></svg>