<svg viewBox="0 0 550 550" xmlns="http://www.w3.org/2000/svg"><path d="m0 0h550v550h-550z" fill="#ff2663"/><path d="m273.89 512.39c-77.128-77.128-178.417-191.444-178.417-292.155 0-99.411 80.643-181.625 180.054-181.625 99.412 0 180 80.589 180 180 0 99.412-104.226 217.245-180.761 293.78z" fill="#fff"/><path d="m273.89 512.39c-77.128-77.128-178.417-191.444-178.417-292.155 0-99.411 80.643-181.625 180.054-181.625 99.412 0 180 80.589 180 180 0 99.412-104.226 217.245-180.761 293.78z" fill="none" stroke="#ac0270" stroke-width="10"/><path d="m275.527 31.61c103.278 0 187 83.723 187 187 0 47.416-22.345 100.844-62.924 159.453-31.298 45.204-71.099 90.488-119.887 139.276l-2.05 2.05-2.9.001h-3.775l-2.051-2.051c-49.29-49.29-88.245-93.597-118.948-138.215-39.741-57.751-61.519-110.838-61.519-158.889 0-103.558 84.054-188.625 187.054-188.625zm0 7c-99.411 0-180.054 82.214-180.054 181.625 0 100.711 101.289 215.027 178.417 292.155h.876c76.535-76.535 180.761-194.368 180.761-293.78 0-99.411-80.588-180-180-180z" fill="#fff"/><path d="m196.051 93.973 4.826-3.07q1.08-.687 1.977-.878.898-.192 1.616-.032.718.16 1.271.601.554.442.919 1.016.311.489.421 1.036.111.546.013 1.082-.097.536-.383 1.037-.285.502-.765.902l.055.012q.107-.092.621-.253.514-.16 1.204-.137.691.023 1.441.364.75.34 1.329 1.252.526.826.62 1.644.093.818-.182 1.597-.274.779-.911 1.492-.637.713-1.582 1.314l-4.826 3.07zm8.304 2.398q1.536-.977 1.86-2.143.325-1.167-.384-2.281-.418-.658-.956-.944-.537-.286-1.136-.296-.599-.01-1.223.22-.624.231-1.231.617l-4.084 2.598 3.07 4.826zm3.778 5.94q1.62-1.03 2.105-2.299.485-1.268-.384-2.635-.494-.776-1.131-1.07-.638-.294-1.318-.264-.68.029-1.366.311-.686.282-1.276.658l-4.084 2.598 3.37 5.299z" fill="#ac0270"/><path d="m214.597 83.064 5.414-2.492q.854-.393 1.678-.563.824-.17 1.567-.039.743.132 1.354.621.611.49 1.045 1.435.602 1.308.281 2.546-.322 1.238-1.53 2.058l.017.036q.94-.301 1.625-.176.685.125 1.182.535.497.41.862 1.012.365.603.658 1.239.176.381.343.745.167.363.35.664.183.301.39.536.207.235.436.35l-.89.41q-.464-.337-.771-.933-.308-.597-.609-1.251-.301-.654-.652-1.274-.351-.619-.876-.994-.525-.375-1.294-.396-.769-.02-1.913.507l-4.615 2.124 2.718 5.904-.8.368zm8.349 3.885q.708-.326 1.238-.778.529-.453.798-1.017.268-.564.263-1.244-.004-.681-.364-1.462-.334-.727-.845-1.119-.511-.392-1.116-.51-.605-.118-1.271.012-.666.131-1.32.432l-4.615 2.124 2.617 5.686z" fill="#ac0270"/><path d="m234.686 74.725 9.228-2.649.209.73-8.381 2.406 1.578 5.498 7.882-2.262.21.73-7.882 2.263 1.733 6.036 8.478-2.434.209.731-9.323 2.676z" fill="#ac0270"/><path d="m258.639 69.488.952-.126 7.465 13.417-.932.123-2.385-4.304-6.781.897-1.204 4.78-.932.123zm4.722 8.393-4.093-7.608-.04.005-2.092 8.427z" fill="#ac0270"/><path d="m272.045 68.935.004-.76 10.94.058-.004.76-5.04-.027-.072 13.52-.88-.005.072-13.519z" fill="#ac0270"/><path d="m293.121 69.221.869.139-1.028 6.398 9.004 1.447 1.028-6.398.869.14-2.265 14.099-.869-.14 1.117-6.951-9.005-1.446-1.116 6.951-.869-.14z" fill="#ac0270"/><path d="m314.605 73.723.848.234-3.806 13.764-.849-.235z" fill="#ac0270"/><path d="m326.419 77.509 1.009.439 3.048 15.61.037.016 5.224-12.013.807.351-5.695 13.095-.954-.415-3.063-15.726-.036-.016-5.264 12.105-.807-.351z" fill="#ac0270"/><path d="m342.651 93.32q.828-1.274 1.952-2.178 1.123-.904 2.411-1.307 1.288-.404 2.668-.235 1.381.17 2.739 1.052.923.6 1.587 1.413.664.813.989 1.763.325.951.298 1.983-.026 1.032-.486 2.069l-.704-.458q.605-1.848.092-3.446-.512-1.597-2.173-2.675-1.207-.785-2.435-.915-1.227-.129-2.36.256-1.133.385-2.121 1.209-.989.825-1.719 1.949-.741 1.14-1.09 2.356-.349 1.217-.227 2.369.122 1.152.755 2.196.634 1.044 1.875 1.85 1.074.697 2.158.901 1.084.203 2.093-.047 1.01-.251 1.895-.952.884-.701 1.553-1.841l-4.411-2.865.414-.637 5.049 3.279-3.814 5.87-.637-.414 1.656-2.549-.034-.022q-.643.513-1.422.758-.779.245-1.609.218-.829-.026-1.69-.299-.86-.272-1.648-.784-1.359-.883-2.091-2.05-.732-1.168-.909-2.475-.176-1.307.19-2.679.367-1.371 1.206-2.663z" fill="#ac0270"/><g fill="#ac0170"><path d="m170.915 279.296.465.747-11.479 7.144 4.28 6.877-.645.401-4.745-7.624z"/><path d="m179.583 292.028.545.691-11.211 8.845-.545-.69z"/><path d="m185.316 298.992 6.204 6.464-.548.526-5.595-5.829-4.127 3.96 5.041 5.253-.548.526-5.041-5.252-5.079 4.874-.61-.635z"/><path d="m196.276 309.724 7.524 5.962-.472.596-6.834-5.416-3.553 4.483 6.427 5.093-.472.595-6.427-5.092-3.9 4.922 6.912 5.477-.472.596-7.602-6.024z"/><path d="m219.145 325.115.792.383-6.212 12.857-.793-.382z"/><path d="m227.372 329.044 1.029.388 3.823 15.439.037.014 4.618-12.259.824.31-5.034 13.364-.973-.367-3.844-15.554-.038-.014-4.653 12.353-.824-.31z"/><path d="m243.354 335.357.17-.741 10.663 2.445-.17.74-4.912-1.126-3.021 13.178-.858-.196 3.021-13.178z"/><path d="m271.543 346.031q-.13 1.554-.702 2.881-.572 1.328-1.523 2.262-.95.934-2.254 1.408-1.304.473-2.898.341-1.595-.133-2.812-.816-1.218-.683-2.001-1.762-.783-1.079-1.128-2.482-.345-1.404-.216-2.958.13-1.555.702-2.882.572-1.327 1.522-2.261.951-.935 2.265-1.408 1.313-.472 2.908-.34 1.594.133 2.802.815 1.208.683 1.991 1.762.783 1.078 1.128 2.482.345 1.403.216 2.958zm-12.657-1.053q-.114 1.375.183 2.624.298 1.249.98 2.219.682.97 1.733 1.599 1.052.629 2.447.745 1.395.116 2.526-.331 1.131-.448 1.964-1.292.833-.844 1.332-2.026.5-1.183.615-2.558.114-1.376-.184-2.625-.297-1.248-.979-2.218-.682-.97-1.723-1.599-1.042-.628-2.437-.744-1.395-.116-2.536.331-1.141.447-1.974 1.29-.833.844-1.333 2.027-.499 1.183-.614 2.558z"/><path d="m289.813 338.091 1.239-.226 7.883 12.078.04-.008 3.035-14.076 1.239-.227 2.571 14.047-.865.158-2.377-12.984-.039.007-2.975 13.964-.865.158-7.787-11.994-.039.007 2.376 12.985-.865.158z"/><path d="m314.235 332.153.906-.318 10.056 11.602-.887.312-3.217-3.724-6.453 2.267-.199 4.925-.886.311zm6.342 7.247-5.566-6.608-.038.013-.321 8.678z"/><path d="m326.062 327.563 5.305-2.716q.837-.428 1.653-.633.817-.204 1.565-.104.748.1 1.378.563.631.464 1.105 1.39.656 1.282.386 2.532-.27 1.25-1.442 2.12l.018.036q.927-.34 1.617-.244.69.096 1.203.485.514.389.904.975.39.587.709 1.21.192.374.374.73.182.356.377.649.195.294.412.52.217.226.451.331l-.873.446q-.477-.317-.809-.9-.332-.582-.66-1.223-.328-.641-.705-1.246-.377-.604-.917-.957-.54-.353-1.309-.341-.77.012-1.891.586l-4.522 2.315 2.962 5.786-.783.401zm8.505 3.533q.694-.356 1.204-.83.509-.475.754-1.05.245-.574.212-1.254-.033-.679-.425-1.445-.365-.712-.892-1.083-.526-.37-1.136-.463-.609-.092-1.269.066-.66.158-1.301.487l-4.522 2.315 2.853 5.572z"/><path d="m341.368 319.062.716-.511 4.772 6.693 2.54-11.907.928-.661-1.86 8.621 10.476 2.773-.896.639-9.753-2.552-.843 3.917 2.926 4.104-.716.511z"/><path d="m355.053 308.598 6.948-6.625.525.55-6.311 6.018 3.947 4.14 5.935-5.659.524.55-5.935 5.659 4.334 4.545 6.383-6.087.525.55-7.021 6.694z"/><path d="m366.13 298.657-.592-.477 6.856-8.525.592.477-3.159 3.927 10.536 8.473-.551.686-10.536-8.473z"/><path d="m383.921 278.962q-.81-.439-1.573-.489-.763-.05-1.466.228-.703.278-1.327.871-.625.594-1.129 1.434-.309.514-.544 1.178-.234.664-.238 1.35-.003.686.307 1.315.311.63 1.065 1.082.738.443 1.417.361.679-.083 1.312-.496.633-.413 1.257-1.065.624-.652 1.241-1.331.628-.696 1.29-1.314.662-.617 1.386-.988.723-.37 1.531-.375.808-.005 1.7.53.96.576 1.365 1.379.405.802.441 1.675.036.873-.242 1.744-.278.872-.7 1.575-.648 1.08-1.446 1.884-.797.805-1.742 1.194-.945.389-2.01.299-1.065-.091-2.238-.818l.453-.755q.981.658 1.881.732.9.074 1.712-.267.811-.342 1.502-1.047.691-.704 1.236-1.613.33-.549.568-1.257.239-.709.226-1.427-.011-.719-.332-1.389-.321-.671-1.127-1.155-.772-.463-1.477-.396-.704.067-1.36.479-.655.411-1.282 1.049-.628.638-1.256 1.335-.617.679-1.276 1.31-.658.631-1.36 1.003-.701.372-1.475.398-.773.026-1.648-.499-.874-.525-1.279-1.269-.405-.744-.436-1.568-.03-.823.232-1.668.262-.846.694-1.566.577-.96 1.29-1.664.713-.703 1.544-1.056.83-.353 1.776-.298.947.054 1.99.61z"/></g><text transform="translate(275.027 175.61)"><tspan fill="#ac0070" font-family="HiraKakuStd-W8" font-size="40" x="-113.72" y="3.5">UNLEASH</tspan></text><text transform="translate(275.027 210.11)"><tspan fill="#ac0070" font-family="HiraKakuStd-W8" font-size="31" x="-113.165" y="6">THE STREET</tspan></text><text transform="translate(275.027 252.11)"><tspan fill="#ac0070" font-family="HiraKakuStd-W8" font-size="46" x="-116.886" y="12">MARKET</tspan></text></svg>